<?xml version="1.0" encoding="UTF-8"?>
<!DOCTYPE svg PUBLIC "-//W3C//DTD SVG 1.1//EN" "http://www.w3.org/Graphics/SVG/1.1/DTD/svg11.dtd">
<svg version="1.1" xmlns="http://www.w3.org/2000/svg" xmlns:xlink="http://www.w3.org/1999/xlink" x="0" y="0" width="370" height="70" viewBox="0, 0, 370, 70">
  <g id="Layer_1">
    <path d="M140.361,48.924 Q132.65,48.924 128.929,45 Q125.209,41.077 125.209,35.124 Q125.209,26.803 130.79,21.865 Q136.37,16.927 144.42,16.927 Q145.976,16.927 146.247,16.995 Q146.653,17.333 146.653,20.242 Q146.653,23.151 145.841,23.759 L145.367,23.759 Q140.159,23.759 136.912,26.195 Q135.559,27.209 134.544,29.374 Q133.529,31.539 133.529,34.583 Q133.529,37.627 135.356,39.622 Q137.182,41.618 141.241,41.618 Q144.42,41.618 146.856,40.4 Q147.126,40.265 147.194,40.265 Q147.735,40.806 147.735,43.918 Q147.735,47.03 146.991,47.638 Q144.758,48.924 140.361,48.924 z" fill="#D89750"/>
    <path d="M152.538,33.839 L152.335,10.365 Q152.335,3.804 152.673,3.465 Q153.485,2.654 155.311,1.91 Q157.138,1.166 158.829,1.166 Q160.52,1.166 160.52,1.436 Q160.452,2.045 160.249,10.298 Q160.047,18.551 160.047,21.121 L160.047,21.73 Q160.047,22.068 160.249,22.068 L161.602,20.715 Q162.346,20.039 164.613,18.855 Q166.879,17.671 168.874,17.671 Q170.87,17.671 172.189,18.348 Q173.508,19.024 174.388,19.971 Q175.267,20.918 175.876,22.711 Q176.485,24.503 176.789,26.026 Q177.093,27.548 177.296,30.186 Q177.499,33.771 177.499,39.25 L177.229,48.247 Q177.026,48.788 174.929,49.194 Q172.832,49.6 171.479,49.6 L169.246,49.262 Q169.923,43.174 169.923,37.559 Q169.923,31.945 169.111,29.036 Q168.299,26.127 165.796,26.127 Q164.173,26.127 162.752,27.412 Q161.332,28.698 160.791,29.983 L160.182,31.268 Q160.317,35.936 160.317,41.28 Q160.317,46.624 159.979,46.894 Q157.949,48.721 152.538,48.721 Q151.997,48.721 151.997,48.518 Q152.538,45.541 152.538,33.839 z" fill="#D89750"/>
    <path d="M190.284,7.795 Q191.434,9.012 191.434,10.974 Q191.434,12.936 189.912,14.323 Q188.39,15.709 186.53,15.709 Q184.67,15.709 183.554,14.526 Q182.437,13.342 182.437,11.38 Q182.437,9.418 183.926,7.998 Q185.414,6.577 187.274,6.577 Q189.134,6.577 190.284,7.795 z M190.69,23.421 L190.555,34.38 Q190.555,39.656 190.859,42.125 Q191.164,44.594 192.584,46.759 Q192.584,47.436 189.811,48.924 Q187.037,50.412 185.076,50.412 Q184.467,50.412 183.858,48.383 Q183.249,46.353 183.08,44.527 Q182.911,42.7 182.911,32.215 Q182.911,21.73 183.384,20.783 Q184.94,19.565 188.864,19.565 Q190.42,19.565 190.758,19.971 z" fill="#D89750"/>
    <path d="M211.119,48.924 Q203.408,48.924 199.687,45 Q195.967,41.077 195.967,35.124 Q195.967,26.803 201.548,21.865 Q207.128,16.927 215.178,16.927 Q216.734,16.927 217.005,16.995 Q217.411,17.333 217.411,20.242 Q217.411,23.151 216.599,23.759 L216.125,23.759 Q210.917,23.759 207.669,26.195 Q206.317,27.209 205.302,29.374 Q204.287,31.539 204.287,34.583 Q204.287,37.627 206.114,39.622 Q207.94,41.618 211.999,41.618 Q215.178,41.618 217.613,40.4 Q217.884,40.265 217.952,40.265 Q218.493,40.806 218.493,43.918 Q218.493,47.03 217.749,47.638 Q215.516,48.924 211.119,48.924 z" fill="#D89750"/>
    <path d="M223.972,33.839 L223.769,10.365 Q223.769,3.804 224.108,3.465 Q224.919,2.654 226.746,1.91 Q228.572,1.166 230.263,1.166 Q231.954,1.166 231.954,1.436 Q231.887,1.774 231.65,10.907 Q231.413,20.039 231.413,22.711 Q231.413,25.383 231.481,25.755 Q231.549,26.127 231.752,26.127 L231.887,26.059 Q234.052,23.759 238.313,20.309 Q242.575,16.859 243.793,16.859 Q247.784,19.362 247.784,20.918 Q245.754,22.203 242.981,24.436 Q240.207,26.668 239.937,27.277 Q239.937,27.818 241.121,31.167 Q242.304,34.515 244.604,39.047 Q246.904,43.58 249.204,45.88 Q249.204,46.691 246.228,47.909 Q243.251,49.127 241.087,49.127 Q240.275,49.127 237.941,42.768 Q235.607,36.409 234.728,32.892 L234.593,32.689 Q234.322,32.689 232.902,34.65 Q231.481,36.612 231.481,37.289 L231.684,44.189 Q231.684,46.624 231.413,46.894 Q230.534,47.774 228.369,48.247 Q226.205,48.721 224.818,48.721 Q223.431,48.721 223.431,48.518 Q223.972,45.541 223.972,33.839 z" fill="#D89750"/>
    <path d="M268.213,25.451 Q268.213,23.489 266.116,23.489 Q263.342,23.489 261.245,26.33 Q259.148,29.171 259.148,33.162 Q259.148,34.109 259.419,34.109 Q261.854,34.042 265.034,31.302 Q268.213,28.562 268.213,25.451 z M274.098,46.962 Q271.798,48.518 265.101,48.518 Q258.404,48.518 254.819,44.527 Q251.234,40.536 251.234,33.872 Q251.234,27.209 255.529,22.305 Q259.825,17.401 267.604,17.401 Q270.783,17.401 273.455,19.092 Q276.128,20.783 276.128,25.011 Q276.128,29.239 272.441,33.365 Q268.754,37.492 262.395,39.656 Q262.395,40.468 264.053,40.975 Q265.71,41.483 267.333,41.483 Q272.475,41.483 275.451,39.656 Q275.519,39.589 275.654,39.589 Q275.789,39.589 275.789,40.874 Q275.789,44.797 274.098,46.962 z" fill="#D89750"/>
    <path d="M289.386,31.742 L289.454,34.245 L289.454,39.386 Q289.454,46.624 289.183,46.894 Q288.304,47.774 286.139,48.247 Q283.974,48.721 282.588,48.721 Q281.201,48.721 281.201,48.518 Q281.674,45.474 281.674,38.506 L281.472,23.286 Q281.472,19.092 281.81,18.754 Q282.554,18.009 284.38,17.434 Q286.207,16.859 287.796,16.859 Q289.386,16.859 289.386,17.198 Q289.183,18.821 289.183,20.445 Q289.183,22.068 289.386,22.068 L289.589,21.933 Q289.927,21.459 290.604,20.749 Q291.28,20.039 293.479,18.855 Q295.677,17.671 297.673,17.671 Q299.668,17.671 301.055,18.381 Q302.442,19.092 303.321,20.106 Q304.201,21.121 304.843,23.015 Q305.486,24.909 305.824,26.533 Q306.162,28.156 306.365,30.862 Q306.568,34.583 306.568,40.333 L306.365,48.247 Q306.365,48.721 304.133,49.161 Q301.901,49.6 300.548,49.6 L298.315,49.262 Q298.992,43.174 298.992,37.458 Q298.992,31.742 298.248,28.867 Q297.504,25.992 295.271,25.992 Q293.039,25.992 291.652,27.209 Q290.266,28.427 289.86,29.645 L289.386,30.795 z" fill="#D89750"/>
    <path d="M319.556,43.241 Q319.556,44.865 318.305,46.116 Q317.053,47.368 315.43,47.368 Q313.806,47.368 312.724,46.252 Q311.642,45.136 311.642,43.411 Q311.642,41.686 312.826,40.502 Q314.009,39.318 315.633,39.318 Q317.256,39.318 318.406,40.468 Q319.556,41.618 319.556,43.241 z" fill="#D89750"/>
    <path d="M338.024,37.018 L338.159,46.556 Q338.159,51.833 336.738,55.891 Q335.318,59.95 333.289,62.182 Q331.259,64.415 328.621,65.768 Q324.427,68 320.03,68 Q319.827,68 319.218,66.985 Q318.609,65.971 318.068,64.212 Q317.527,62.453 317.527,60.965 L318.203,60.965 Q320.706,60.965 323.953,59.544 Q330.244,56.365 330.244,44.73 Q330.38,40.265 330.38,34.414 Q330.38,28.562 329.906,28.021 Q328.959,27.142 325.847,26.398 L324.833,26.195 Q324.697,25.924 324.697,25.451 Q324.697,22.339 325.645,21.392 Q329.703,19.362 336.874,19.362 Q338.091,19.362 338.227,19.498 Q338.024,28.63 338.024,37.018 z M336.671,7.795 Q337.821,9.012 337.821,10.974 Q337.821,12.936 336.299,14.323 Q334.777,15.709 332.917,15.709 Q331.056,15.709 329.94,14.492 Q328.824,13.274 328.824,11.346 Q328.824,9.418 330.312,7.998 Q331.8,6.577 333.661,6.577 Q335.521,6.577 336.671,7.795 z" fill="#D89750"/>
    <path d="M364,39.183 Q364,42.836 360.584,45.711 Q357.168,48.586 353.21,49.837 Q349.253,51.088 346.277,51.088 Q345.938,51.088 345.33,50.277 Q343.638,48.044 343.638,45.068 L343.638,44.594 Q348.915,44.594 351.688,42.768 Q354.462,40.942 354.462,38.98 Q354.462,37.694 352.771,36.274 Q351.08,34.853 349.05,33.771 Q347.021,32.689 345.33,30.896 Q343.638,29.103 343.638,27.142 Q343.638,23.015 348.78,19.565 Q353.921,16.115 359.738,16.115 Q360.415,16.115 361.497,17.976 Q362.579,19.836 362.647,21.798 Q361.294,21.798 358.588,22.609 Q353.244,24.301 353.244,26.803 Q353.244,28.562 358.521,31.606 Q360.55,32.756 362.241,34.786 Q363.932,36.815 364,39.183 z" fill="#D89750"/>
    <path d="M75.723,49.877 L88.946,46.334 C100.833,43.148 107.912,30.885 104.729,18.997 C101.543,7.108 89.282,0.03 77.393,3.216 L64.171,6.759 C55.358,9.12 38.567,19.455 36.956,29.112 L21.968,33.126 C20.226,31.906 15.011,28.733 9.542,30.198 C5.559,31.266 3.19,35.373 4.255,39.35 C4.94,41.903 6.919,43.666 9.271,44.413 C7.618,46.262 6.79,48.807 7.483,51.395 C8.57,55.45 12.719,57.876 16.727,56.802 C21.978,55.395 25.187,49.793 26.147,47.871 L39.209,44.372 C39.218,44.37 39.222,44.377 39.23,44.375 C39.245,44.37 39.256,44.36 39.268,44.356 L40.86,43.929 C47.206,51.585 67.012,52.211 75.723,49.877 z M15.99,54.044 C13.499,54.712 10.92,53.192 10.242,50.657 C9.563,48.125 11.037,45.52 13.527,44.854 C14.29,44.649 14.74,43.867 14.537,43.106 C14.518,43.036 14.442,43.009 14.413,42.946 C14.408,42.926 14.425,42.905 14.421,42.891 C14.218,42.125 13.436,41.675 12.673,41.878 C10.212,42.538 7.673,41.073 7.014,38.612 C6.354,36.149 7.819,33.612 10.282,32.953 C15.432,31.575 20.727,35.754 20.78,35.794 C21.135,36.079 21.604,36.177 22.044,36.058 L36.004,32.319 C36.905,32.078 37.833,32.61 38.076,33.515 C38.317,34.416 37.782,35.348 36.882,35.589 C36.119,35.794 35.668,36.578 35.871,37.339 C36.076,38.1 36.858,38.553 37.619,38.348 C38.52,38.107 39.448,38.639 39.689,39.54 C39.93,40.434 39.402,41.352 38.512,41.603 L24.777,45.284 C24.357,45.398 24.014,45.694 23.841,46.091 C23.809,46.157 20.883,52.733 15.99,54.044 z M42.644,41.637 C42.615,41.59 42.551,41.597 42.518,41.552 C42.45,41.464 42.401,41.369 42.317,41.297 C42.566,40.502 42.676,39.663 42.444,38.802 C42.131,37.633 41.374,36.707 40.414,36.122 C40.949,35.132 41.146,33.951 40.831,32.777 C40.6,31.919 40.084,31.247 39.478,30.683 C39.52,30.556 39.638,30.469 39.643,30.325 C39.989,22.753 55.635,12.002 64.908,9.516 L78.131,5.973 C88.498,3.195 99.192,9.37 101.968,19.734 C104.748,30.103 98.573,40.796 88.206,43.573 L74.983,47.116 C65.659,49.619 47.073,48.125 42.644,41.637 z M77.85,15.067 C77.491,15.769 76.628,16.046 75.928,15.688 L74.132,14.767 C73.762,14.574 73.506,14.238 73.404,13.864 C73.316,13.534 73.347,13.171 73.512,12.843 C73.874,12.143 74.734,11.866 75.436,12.224 L77.233,13.145 C77.928,13.509 78.201,14.373 77.85,15.067 z M85.574,9.615 C85.934,8.911 86.792,8.632 87.496,8.991 L89.297,9.913 C89.992,10.272 90.28,11.133 89.919,11.832 C89.561,12.534 88.701,12.811 87.999,12.454 L86.196,11.534 C85.824,11.342 85.568,11.01 85.467,10.632 C85.378,10.304 85.407,9.943 85.574,9.615 z M90.688,16.136 C91.047,15.435 91.906,15.158 92.607,15.515 L94.406,16.437 C95.108,16.802 95.379,17.659 95.028,18.356 C94.666,19.058 93.808,19.335 93.108,18.978 L91.309,18.056 C90.935,17.864 90.68,17.532 90.578,17.155 C90.489,16.823 90.523,16.464 90.688,16.136 z M82.993,21.584 C82.634,22.284 81.771,22.561 81.072,22.199 L79.281,21.275 C78.911,21.083 78.655,20.751 78.556,20.377 C78.467,20.045 78.499,19.682 78.666,19.354 C79.025,18.654 79.888,18.377 80.588,18.739 L82.378,19.663 C83.08,20.026 83.35,20.893 82.993,21.584 z M84.881,17.445 L83.084,16.521 C82.712,16.329 82.456,15.997 82.357,15.623 C82.268,15.291 82.298,14.929 82.469,14.6 C82.828,13.902 83.687,13.625 84.388,13.984 L86.183,14.908 C86.885,15.268 87.158,16.134 86.8,16.83 C86.441,17.527 85.583,17.806 84.881,17.445 z" fill="#CD853F"/>
  </g>
</svg>
